<svg width="24" height="24" viewBox="0 0 24 24" fill="none" xmlns="http://www.w3.org/2000/svg">
<path d="M5.00586 6.93309C5.04883 5.7996 5.70011 4.77423 6.53711 3.93723C7.93006 2.54428 10.1525 2.73144 11.0369 4.31617L11.6859 5.4791C12.2716 6.52858 12.0365 7.90533 11.114 8.8278M17.0662 18.9934C18.1997 18.9505 19.2251 18.2992 20.0621 17.4622C21.455 16.0692 21.2679 13.8468 19.6831 12.9624L18.5202 12.3134C17.4707 11.7277 16.094 11.9628 15.1715 12.8853" stroke="#FF0000" stroke-width="1.5"/>
<path opacity="0.5" d="M5.00655 6.93311C4.93421 8.84124 5.41713 12.0817 8.6677 15.3323C11.9183 18.5829 15.1588 19.0658 17.0669 18.9935M15.1722 12.8853C15.1722 12.8853 14.0532 14.0042 12.0245 11.9755C9.99578 9.94676 11.1147 8.82782 11.1147 8.82782" stroke="#FF0000" stroke-width="1.5"/>
</svg>
